<svg xmlns="http://www.w3.org/2000/svg" viewBox="0 0 24 17" width="24" height="17">
	<defs>
		<clipPath clipPathUnits="userSpaceOnUse" id="cp1">
			<path d="M-31 -370L329 -370L329 270L-31 270Z" />
		</clipPath>
	</defs>
	<style>
		tspan { white-space:pre }
		.shp0 { fill: #666363 } 
	</style>
	<g id="Home Screen" clip-path="url(#cp1)">
		<g id="MenuLanding Copy 3">
			<g id="Group">
				<g id="MenuLandingIconHome">
					<g id="np_blog_1087140_666363">
						<path id="Shape" fill-rule="evenodd" class="shp0" d="M16.55 0.8C17.41 0.8 18.11 1.43 18.11 2.19L18.11 5.36L20.03 3.65C20.11 3.58 20.21 3.53 20.33 3.52C20.48 3.5 20.63 3.55 20.74 3.65L23.05 5.7C23.24 5.88 23.24 6.17 23.05 6.34L18.11 10.73L18.11 14.81C18.11 15.57 17.41 16.2 16.55 16.2L2.36 16.2C1.5 16.2 0.8 15.57 0.8 14.81L0.8 2.19C0.8 1.43 1.5 0.8 2.36 0.8L16.55 0.8ZM2.36 1.71C2.05 1.71 1.82 1.91 1.82 2.19L1.82 14.81C1.82 15.09 2.05 15.29 2.36 15.29L16.55 15.29C16.86 15.29 17.09 15.09 17.09 14.81L17.09 11.63L15.67 12.89C15.57 12.98 15.44 13.03 15.31 13.03L13.02 13.03C12.74 13.03 12.51 12.83 12.51 12.58L12.51 10.54C12.51 10.42 12.56 10.3 12.66 10.22L17.09 6.27L17.09 2.19C17.09 1.91 16.86 1.71 16.55 1.71L2.36 1.71L2.36 1.71ZM4.32 3.97C4.33 3.97 4.35 3.97 4.36 3.97L14.55 3.97C14.68 3.97 14.81 4.02 14.91 4.1C15.01 4.19 15.06 4.3 15.06 4.42C15.06 4.54 15.01 4.66 14.91 4.75C14.81 4.83 14.68 4.88 14.55 4.88L4.36 4.88C4.23 4.88 4.1 4.84 4 4.76C3.9 4.68 3.84 4.57 3.83 4.44C3.82 4.32 3.87 4.21 3.96 4.12C4.05 4.03 4.18 3.98 4.32 3.97ZM19.45 5.44L21.04 6.85L21.97 6.02L20.38 4.61L19.45 5.44ZM13.53 10.72L13.53 12.12L15.1 12.12L20.33 7.49L18.74 6.07L13.53 10.72ZM4.32 6.69C4.33 6.69 4.35 6.69 4.36 6.69L14.55 6.69C14.68 6.69 14.81 6.73 14.91 6.82C15.01 6.9 15.06 7.02 15.06 7.14C15.06 7.26 15.01 7.38 14.91 7.46C14.81 7.55 14.68 7.6 14.55 7.59L4.36 7.59C4.23 7.6 4.1 7.56 4 7.48C3.9 7.4 3.84 7.28 3.83 7.16C3.82 7.04 3.87 6.92 3.96 6.84C4.05 6.75 4.18 6.69 4.32 6.69ZM4.32 9.41C4.33 9.4 4.35 9.4 4.36 9.41L11.02 9.41C11.16 9.4 11.29 9.45 11.39 9.54C11.48 9.62 11.54 9.74 11.54 9.86C11.54 9.98 11.48 10.1 11.39 10.18C11.29 10.27 11.16 10.31 11.02 10.31L4.36 10.31C4.23 10.32 4.1 10.28 4 10.19C3.9 10.11 3.84 10 3.83 9.88C3.82 9.76 3.87 9.64 3.96 9.55C4.05 9.46 4.18 9.41 4.32 9.41L4.32 9.41ZM4.32 12.12C4.33 12.12 4.35 12.12 4.36 12.12L10.98 12.12C11.12 12.12 11.25 12.17 11.35 12.25C11.44 12.34 11.5 12.46 11.5 12.58C11.5 12.7 11.44 12.81 11.35 12.9C11.25 12.98 11.12 13.03 10.98 13.03L4.36 13.03C4.23 13.03 4.1 12.99 4 12.91C3.9 12.83 3.84 12.72 3.83 12.6C3.82 12.48 3.87 12.36 3.96 12.27C4.05 12.18 4.18 12.13 4.32 12.12Z" />
					</g>
				</g>
			</g>
		</g>
	</g>
</svg>