<svg xmlns="http://www.w3.org/2000/svg" viewBox="0 0 16 19" width="16" height="19">
	<defs>
		<clipPath clipPathUnits="userSpaceOnUse" id="cp1">
			<path d="M-35 -284L325 -284L325 356L-35 356Z" />
		</clipPath>
	</defs>
	<style>
		tspan { white-space:pre }
		.shp0 { fill: #666363 } 
	</style>
	<g id="Home Screen" clip-path="url(#cp1)">
		<g id="MenuLanding Copy 2">
			<g id="Group">
				<g id="MenuLandingIconHome">
					<g id="np_calculator_2338281_666363">
						<path id="Shape" fill-rule="evenodd" class="shp0" d="M16 2.02L16 16.98C16 17.87 15.18 18.6 14.17 18.6L1.83 18.6C0.82 18.6 0 17.87 0 16.98L0 2.02C0 1.13 0.82 0.4 1.83 0.4L14.17 0.4C15.18 0.4 16 1.13 16 2.02ZM15.09 2.02C15.09 1.57 14.68 1.21 14.17 1.21L1.83 1.21C1.32 1.21 0.91 1.57 0.91 2.02L0.91 16.98C0.91 17.43 1.32 17.79 1.83 17.79L14.17 17.79C14.68 17.79 15.09 17.43 15.09 16.98L15.09 2.02ZM5.49 14.15L5.49 16.17C5.49 16.4 5.28 16.58 5.03 16.58L2.74 16.58C2.49 16.58 2.29 16.4 2.29 16.17L2.29 14.15C2.29 13.93 2.49 13.75 2.74 13.75L5.03 13.75C5.28 13.75 5.49 13.93 5.49 14.15ZM4.57 14.56L3.2 14.56L3.2 15.77L4.57 15.77L4.57 14.56ZM5.49 10.51L5.49 12.53C5.49 12.76 5.28 12.94 5.03 12.94L2.74 12.94C2.49 12.94 2.29 12.76 2.29 12.53L2.29 10.51C2.29 10.29 2.49 10.11 2.74 10.11L5.03 10.11C5.28 10.11 5.49 10.29 5.49 10.51ZM4.57 10.92L3.2 10.92L3.2 12.13L4.57 12.13L4.57 10.92ZM5.49 6.87L5.49 8.89C5.49 9.12 5.28 9.3 5.03 9.3L2.74 9.3C2.49 9.3 2.29 9.12 2.29 8.89L2.29 6.87C2.29 6.65 2.49 6.47 2.74 6.47L5.03 6.47C5.28 6.47 5.49 6.65 5.49 6.87ZM4.57 7.28L3.2 7.28L3.2 8.49L4.57 8.49L4.57 7.28ZM9.6 14.15L9.6 16.17C9.6 16.4 9.39 16.58 9.14 16.58L6.86 16.58C6.61 16.58 6.4 16.4 6.4 16.17L6.4 14.15C6.4 13.93 6.61 13.75 6.86 13.75L9.14 13.75C9.39 13.75 9.6 13.93 9.6 14.15ZM8.69 14.56L7.31 14.56L7.31 15.77L8.69 15.77L8.69 14.56ZM9.6 10.51L9.6 12.53C9.6 12.76 9.39 12.94 9.14 12.94L6.86 12.94C6.61 12.94 6.4 12.76 6.4 12.53L6.4 10.51C6.4 10.29 6.61 10.11 6.86 10.11L9.14 10.11C9.39 10.11 9.6 10.29 9.6 10.51ZM8.69 10.92L7.31 10.92L7.31 12.13L8.69 12.13L8.69 10.92ZM9.6 6.87L9.6 8.89C9.6 9.12 9.39 9.3 9.14 9.3L6.86 9.3C6.61 9.3 6.4 9.12 6.4 8.89L6.4 6.87C6.4 6.65 6.61 6.47 6.86 6.47L9.14 6.47C9.39 6.47 9.6 6.65 9.6 6.87ZM8.69 7.28L7.31 7.28L7.31 8.49L8.69 8.49L8.69 7.28ZM13.71 10.51L13.71 16.17C13.71 16.4 13.51 16.58 13.26 16.58L10.97 16.58C10.72 16.58 10.51 16.4 10.51 16.17L10.51 10.51C10.51 10.29 10.72 10.11 10.97 10.11L13.26 10.11C13.51 10.11 13.71 10.29 13.71 10.51ZM12.8 10.92L11.43 10.92L11.43 15.77L12.8 15.77L12.8 10.92ZM13.71 6.87L13.71 8.89C13.71 9.12 13.51 9.3 13.26 9.3L10.97 9.3C10.72 9.3 10.51 9.12 10.51 8.89L10.51 6.87C10.51 6.65 10.72 6.47 10.97 6.47L13.26 6.47C13.51 6.47 13.71 6.65 13.71 6.87ZM12.8 7.28L11.43 7.28L11.43 8.49L12.8 8.49L12.8 7.28ZM13.71 2.83L13.71 4.85C13.71 5.07 13.51 5.25 13.26 5.25L2.74 5.25C2.49 5.25 2.29 5.07 2.29 4.85L2.29 2.83C2.29 2.6 2.49 2.42 2.74 2.42L13.26 2.42C13.51 2.42 13.71 2.6 13.71 2.83ZM12.8 3.23L3.2 3.23L3.2 4.44L12.8 4.44L12.8 3.23Z" />
					</g>
				</g>
			</g>
		</g>
	</g>
</svg>