<svg xmlns="http://www.w3.org/2000/svg" viewBox="0 0 22 21" width="22" height="21">
	<defs>
		<clipPath clipPathUnits="userSpaceOnUse" id="cp1">
			<path d="M-32 -453L328 -453L328 187L-32 187Z" />
		</clipPath>
	</defs>
	<style>
		tspan { white-space:pre }
		.shp0 { fill: #666363 } 
	</style>
	<g id="Home Screen" clip-path="url(#cp1)">
		<g id="MenuLanding Copy 4">
			<g id="Group">
				<g id="MenuLandingIconHome">
					<g id="np_data-protection-guidelines_1830295_666363">
						<path id="Shape" fill-rule="evenodd" class="shp0" d="M21.36 3.31L21.36 7.5C21.26 9.12 20.6 10.68 19.48 11.99L19.48 19.32C19.48 19.86 18.97 20.3 18.35 20.3L3.27 20.3C1.82 20.3 0.64 19.28 0.64 18.01L0.64 2.99C0.64 1.72 1.82 0.7 3.27 0.7L18.35 0.7C18.97 0.7 19.48 1.14 19.48 1.68L19.48 2.33L20.23 2.33C20.86 2.33 21.36 2.77 21.36 3.31ZM18.72 18.99L3.65 18.99C3.44 18.99 3.27 18.85 3.27 18.67C3.27 18.49 3.44 18.34 3.65 18.34L18.72 18.34L18.72 17.69L3.65 17.69C3.44 17.69 3.27 17.54 3.27 17.36C3.27 17.18 3.44 17.03 3.65 17.03L18.72 17.03L18.72 16.38L3.27 16.38C2.23 16.38 1.39 17.11 1.39 18.01C1.39 18.92 2.23 19.65 3.27 19.65L18.35 19.65C18.56 19.65 18.72 19.5 18.72 19.32L18.72 18.99ZM18.73 12.78C17.9 13.55 16.95 14.19 15.9 14.7C15.78 14.76 15.64 14.76 15.52 14.7C10.12 12.05 10.06 7.68 10.06 7.5L10.06 3.31C10.06 2.77 10.56 2.33 11.19 2.33L18.72 2.33L18.72 1.68C18.72 1.5 18.56 1.35 18.35 1.35L3.65 1.35L3.65 14.75C3.65 14.93 3.48 15.07 3.27 15.07C3.07 15.07 2.9 14.93 2.9 14.75L2.9 1.39C2.02 1.54 1.39 2.21 1.39 2.99L1.39 16.42C1.89 15.97 2.57 15.73 3.27 15.73L18.72 15.73L18.73 12.78ZM20.61 3.31C20.61 3.13 20.44 2.99 20.23 2.99L11.19 2.99C10.98 2.99 10.81 3.13 10.81 3.31L10.81 7.5C10.81 7.67 10.88 11.57 15.71 14.04C16.89 13.45 17.93 12.66 18.77 11.72C18.79 11.69 18.81 11.65 18.85 11.63C19.89 10.43 20.51 9 20.61 7.5L20.61 3.31Z" />
					</g>
				</g>
			</g>
		</g>
	</g>
</svg>