<?xml version="1.0" encoding="UTF-8"?>
<svg xmlns="http://www.w3.org/2000/svg" xmlns:xlink="http://www.w3.org/1999/xlink" width="24px" height="24px" viewBox="0 0 24 24" version="1.1">
<g id="surface532108">
<path style=" stroke:none;fill-rule:nonzero;fill:rgb(60%,60%,60%);fill-opacity:1;" d="M 8 2 L 8 5 L 10 5 L 10 2 Z M 12 3 L 12 5 L 14 5 L 14 3 Z M 4 7 L 4 18 C 4 20.210938 5.789062 22 8 22 L 14 22 C 16.210938 22 18 20.210938 18 18 L 18 17 L 20 17 C 21.105469 17 22 16.105469 22 15 L 22 11 C 22 9.894531 21.105469 9 20 9 L 18 9 L 18 7 Z M 6 9 L 16 9 L 16 18 C 16 19.105469 15.105469 20 14 20 L 8 20 C 6.894531 20 6 19.105469 6 18 Z M 18 11 L 20 11 L 20 15 L 18 15 Z M 18 11 "/>
</g>
</svg>
