<?xml version="1.0" encoding="UTF-8"?>
<svg xmlns="http://www.w3.org/2000/svg" xmlns:xlink="http://www.w3.org/1999/xlink" width="100pt" height="100pt" viewBox="0 0 100 100" version="1.1">
<g id="surface119239">
<path style=" stroke:none;fill-rule:nonzero;fill:rgb(60%,60%,60%);fill-opacity:1;" d="M 50.59375 19 C 40.445312 19 34 26.804688 34 34.660156 C 34 37.121094 34.578125 39.023438 35.304688 40.441406 L 35.292969 40.429688 C 35.292969 40.429688 34.722656 41.199219 34.628906 41.316406 C 34.628906 41.320312 34.625 41.320312 34.625 41.324219 C 34.3125 41.738281 34.03125 42.359375 34.003906 43.128906 C 33.992188 43.410156 34.019531 43.441406 34.042969 43.605469 C 34.070312 43.769531 34.101562 43.972656 34.140625 44.207031 C 34.222656 44.679688 34.332031 45.273438 34.445312 45.882812 C 34.679688 47.097656 34.898438 48.230469 35.089844 48.820312 C 35.09375 48.824219 35.089844 48.824219 35.089844 48.824219 C 35.335938 49.601562 35.84375 50.246094 36.503906 50.71875 L 36.503906 50.863281 C 36.503906 52.699219 37.238281 54.515625 37.914062 55.546875 C 37.917969 55.546875 37.917969 55.546875 37.917969 55.546875 C 39.410156 57.824219 40.960938 59.746094 43.003906 61.207031 L 43.003906 62.25 C 43.003906 64.082031 41.152344 64.75 41.152344 64.75 C 41.125 64.761719 41.097656 64.773438 41.066406 64.785156 C 41.066406 64.785156 36.476562 67.007812 34.953125 67.71875 C 33.664062 68.324219 32.207031 69.226562 31.035156 70.578125 C 30.453125 71.25 29.945312 72.042969 29.582031 72.941406 C 29.375 72.839844 29.171875 72.734375 28.953125 72.648438 C 28.9375 72.644531 28.917969 72.636719 28.898438 72.628906 L 23.34375 70.808594 C 23.332031 70.804688 22.320312 70.324219 22.121094 69.25 C 23.84375 68.285156 25.605469 66.96875 26.84375 65.078125 L 26.839844 65.078125 C 27.347656 64.308594 28 63.019531 28 61.488281 L 28 61.472656 C 28.519531 61.0625 28.925781 60.539062 29.117188 59.921875 L 29.117188 59.917969 C 29.285156 59.402344 29.453125 58.519531 29.640625 57.546875 C 29.734375 57.058594 29.820312 56.582031 29.886719 56.203125 C 29.917969 56.011719 29.945312 55.847656 29.964844 55.714844 C 29.984375 55.578125 30.007812 55.570312 29.996094 55.296875 C 29.972656 54.636719 29.734375 54.101562 29.460938 53.738281 C 29.460938 53.734375 29.457031 53.734375 29.457031 53.734375 C 29.394531 53.652344 29.046875 53.1875 28.972656 53.09375 C 29.542969 51.9375 30 50.414062 30 48.5 C 30 46.085938 29.496094 43.960938 28.605469 42.382812 C 27.78125 40.914062 26.5625 39.972656 25.152344 39.746094 C 24.382812 38.105469 22.097656 36 17.476562 36 C 9.25 36 4 42.222656 4 48.5 C 4 50.503906 4.453125 52.039062 5.023438 53.179688 C 4.992188 53.214844 4.992188 53.214844 4.957031 53.253906 C 4.800781 53.429688 4.675781 53.5625 4.542969 53.734375 C 4.542969 53.734375 4.539062 53.738281 4.539062 53.742188 C 4.265625 54.097656 4.027344 54.636719 4 55.296875 C 3.992188 55.570312 4.015625 55.578125 4.035156 55.714844 C 4.054688 55.847656 4.082031 56.011719 4.113281 56.203125 C 4.179688 56.582031 4.265625 57.058594 4.359375 57.546875 C 4.546875 58.515625 4.714844 59.402344 4.878906 59.917969 L 4.878906 59.921875 C 4.882812 59.921875 4.878906 59.921875 4.878906 59.925781 C 5.074219 60.539062 5.480469 61.0625 6 61.472656 L 6 61.488281 C 6 63.019531 6.652344 64.308594 7.15625 65.078125 C 8.398438 66.96875 10.160156 68.289062 11.878906 69.253906 C 11.683594 70.351562 10.671875 70.804688 10.664062 70.804688 L 10.660156 70.808594 L 5.097656 72.628906 C 5.082031 72.636719 5.0625 72.644531 5.046875 72.648438 C 2.675781 73.574219 0.976562 75.582031 0.273438 77.980469 C 0.164062 78.109375 0.0859375 78.261719 0.046875 78.425781 C -0.238281 79.734375 0.808594 81 2.140625 81 L 97.859375 81 C 99.191406 81 100.238281 79.734375 99.949219 78.425781 C 99.914062 78.261719 99.835938 78.105469 99.722656 77.980469 C 99.019531 75.578125 97.324219 73.570312 94.953125 72.648438 C 94.9375 72.640625 94.917969 72.636719 94.898438 72.632812 L 89.34375 70.808594 C 89.332031 70.804688 88.320312 70.324219 88.121094 69.253906 C 89.84375 68.285156 91.605469 66.96875 92.84375 65.078125 L 92.839844 65.078125 C 93.347656 64.308594 94 63.019531 94 61.492188 L 94 61.472656 C 94.519531 61.0625 94.925781 60.539062 95.117188 59.921875 L 95.117188 59.917969 C 95.285156 59.402344 95.453125 58.519531 95.640625 57.546875 C 95.734375 57.058594 95.820312 56.582031 95.886719 56.203125 C 95.917969 56.011719 95.945312 55.847656 95.964844 55.714844 C 95.984375 55.578125 96.007812 55.570312 95.996094 55.296875 C 95.972656 54.636719 95.734375 54.101562 95.460938 53.738281 C 95.460938 53.738281 95.457031 53.734375 95.457031 53.734375 C 95.394531 53.652344 95.046875 53.1875 94.972656 53.09375 C 95.101562 52.832031 95.222656 52.546875 95.335938 52.246094 C 95.359375 52.183594 95.382812 52.121094 95.402344 52.058594 C 95.515625 51.75 95.617188 51.429688 95.699219 51.082031 C 95.703125 51.078125 95.703125 51.074219 95.703125 51.070312 C 95.785156 50.738281 95.84375 50.378906 95.894531 50.011719 C 95.90625 49.914062 95.917969 49.820312 95.925781 49.726562 C 95.96875 49.332031 96 48.929688 96 48.5 C 96 47.894531 95.96875 47.3125 95.90625 46.75 C 95.722656 45.058594 95.273438 43.566406 94.605469 42.382812 C 93.78125 40.914062 92.5625 39.972656 91.152344 39.746094 C 90.382812 38.105469 88.097656 36 83.476562 36 C 75.25 36 70 42.222656 70 48.5 C 70 48.949219 70.03125 49.367188 70.070312 49.769531 C 70.082031 49.859375 70.089844 49.949219 70.101562 50.039062 C 70.152344 50.429688 70.214844 50.808594 70.296875 51.15625 C 70.296875 51.164062 70.300781 51.171875 70.304688 51.179688 C 70.390625 51.542969 70.492188 51.882812 70.605469 52.199219 C 70.617188 52.226562 70.628906 52.253906 70.636719 52.28125 C 70.757812 52.601562 70.882812 52.898438 71.019531 53.167969 C 71.019531 53.171875 71.023438 53.175781 71.023438 53.179688 C 70.992188 53.214844 70.992188 53.214844 70.957031 53.253906 C 70.800781 53.429688 70.675781 53.5625 70.542969 53.730469 C 70.542969 53.734375 70.539062 53.738281 70.539062 53.738281 C 70.265625 54.097656 70.027344 54.636719 70 55.296875 C 69.992188 55.570312 70.015625 55.578125 70.035156 55.710938 C 70.054688 55.847656 70.082031 56.011719 70.113281 56.203125 C 70.179688 56.582031 70.265625 57.058594 70.359375 57.542969 C 70.546875 58.515625 70.714844 59.402344 70.878906 59.917969 C 70.882812 59.921875 70.878906 59.921875 70.878906 59.921875 C 71.074219 60.539062 71.480469 61.0625 72 61.472656 L 72 61.488281 C 72 63.019531 72.652344 64.308594 73.15625 65.078125 C 74.398438 66.96875 76.160156 68.289062 77.878906 69.253906 C 77.683594 70.351562 76.671875 70.804688 76.664062 70.804688 L 76.660156 70.808594 L 71.097656 72.628906 C 71.082031 72.636719 71.0625 72.644531 71.046875 72.648438 C 70.828125 72.734375 70.625 72.839844 70.417969 72.941406 C 70.058594 72.042969 69.550781 71.25 68.96875 70.578125 C 67.796875 69.226562 66.339844 68.320312 65.046875 67.71875 C 63.527344 67.007812 58.933594 64.785156 58.933594 64.785156 C 58.90625 64.773438 58.878906 64.761719 58.851562 64.75 C 58.851562 64.75 57 64.082031 57 62.25 L 57 61.207031 C 59.039062 59.742188 60.59375 57.824219 62.085938 55.546875 C 62.761719 54.515625 63.5 52.699219 63.5 50.863281 L 63.5 50.71875 C 64.15625 50.246094 64.667969 49.601562 64.910156 48.824219 L 64.910156 48.820312 C 65.101562 48.234375 65.320312 47.097656 65.554688 45.882812 C 65.671875 45.273438 65.78125 44.683594 65.859375 44.210938 C 65.902344 43.976562 65.933594 43.769531 65.957031 43.605469 C 65.980469 43.441406 66.007812 43.410156 65.996094 43.128906 C 65.96875 42.359375 65.691406 41.738281 65.378906 41.324219 C 65.378906 41.324219 65.375 41.320312 65.375 41.320312 C 65.277344 41.191406 64.707031 40.429688 64.707031 40.429688 L 64.585938 40.523438 C 65.363281 39.070312 66 37.128906 66 34.65625 C 66 31.628906 65.375 28.96875 64.285156 26.996094 C 63.265625 25.144531 61.769531 23.960938 60.027344 23.703125 C 59.121094 21.683594 56.328125 19 50.59375 19 Z M 50.59375 20 C 56.179688 20 58.578125 22.671875 59.21875 24.265625 C 59.289062 24.441406 59.457031 24.5625 59.644531 24.578125 C 61.113281 24.679688 62.429688 25.699219 63.410156 27.476562 C 64.394531 29.257812 65 31.765625 65 34.65625 C 65 39.558594 62.78125 41.636719 61.882812 42.375 C 61.855469 42.011719 61.890625 41.976562 61.78125 41.40625 C 61.757812 41.222656 61.636719 41.066406 61.460938 41 C 61.285156 40.9375 61.089844 40.972656 60.953125 41.097656 C 60.816406 41.222656 60.757812 41.414062 60.800781 41.59375 C 61.019531 42.730469 61 43.46875 61 43.46875 C 60.996094 43.65625 61.09375 43.828125 61.257812 43.917969 C 61.421875 44.007812 61.621094 44 61.773438 43.898438 C 61.773438 43.898438 62.589844 43.3125 63.5 42.15625 C 63.628906 42.328125 63.722656 42.453125 63.785156 42.53125 C 63.875 42.652344 63.972656 42.839844 63.992188 43.15625 C 63.988281 43.199219 63.988281 43.261719 63.976562 43.320312 C 63.960938 43.457031 63.925781 43.648438 63.886719 43.875 C 63.8125 44.324219 63.703125 44.910156 63.589844 45.503906 C 63.359375 46.699219 63.054688 48.066406 63.007812 48.214844 C 63.007812 48.214844 63.007812 48.21875 63.003906 48.21875 C 62.8125 48.832031 62.441406 49.214844 62.183594 49.300781 C 61.773438 49.4375 61.5 49.820312 61.5 50.25 L 61.5 50.863281 C 61.5 52.066406 60.792969 53.871094 60.414062 54.449219 C 58.847656 56.835938 57.398438 58.671875 55.457031 59.929688 C 55.449219 59.933594 55.445312 59.9375 55.4375 59.941406 C 55.046875 60.167969 54.625 60.410156 54.089844 60.675781 C 52.742188 61.351562 51.070312 62 50.003906 62 L 50 62 C 48.933594 62 47.261719 61.351562 45.914062 60.675781 C 45.382812 60.410156 44.960938 60.171875 44.570312 59.945312 C 44.5625 59.941406 44.554688 59.933594 44.546875 59.929688 C 42.605469 58.671875 41.15625 56.835938 39.589844 54.449219 C 39.210938 53.871094 38.503906 52.066406 38.503906 50.863281 L 38.503906 50.25 C 38.503906 49.820312 38.230469 49.4375 37.820312 49.300781 C 37.5625 49.214844 37.1875 48.832031 36.996094 48.21875 C 36.996094 48.21875 36.996094 48.214844 36.996094 48.210938 C 36.945312 48.066406 36.640625 46.699219 36.414062 45.503906 C 36.296875 44.910156 36.191406 44.324219 36.113281 43.875 C 36.074219 43.648438 36.042969 43.457031 36.027344 43.320312 C 36.015625 43.261719 36.015625 43.203125 36.011719 43.160156 C 36.03125 42.84375 36.128906 42.652344 36.21875 42.53125 C 36.277344 42.457031 36.355469 42.347656 36.472656 42.195312 C 36.839844 42.652344 37.203125 43.042969 37.492188 43.304688 C 37.691406 43.484375 37.863281 43.625 37.984375 43.71875 C 38.042969 43.769531 38.089844 43.804688 38.121094 43.828125 C 38.125 43.832031 38.105469 43.808594 38.113281 43.816406 C 38.253906 43.992188 38.496094 44.050781 38.703125 43.957031 C 38.910156 43.867188 39.027344 43.648438 38.996094 43.425781 C 38.996094 43.425781 38.742188 41.039062 40.308594 37.972656 C 40.410156 38.359375 40.429688 38.957031 40.566406 39.195312 C 40.71875 39.460938 40.878906 39.640625 41.011719 39.757812 C 41.140625 39.878906 41.285156 39.949219 41.285156 39.949219 C 41.507812 40.058594 41.773438 39.984375 41.914062 39.78125 C 41.914062 39.78125 45.5625 34.714844 49.890625 32.453125 C 49.804688 33.722656 49.53125 35.375 48.109375 37.191406 C 47.988281 37.34375 47.96875 37.546875 48.050781 37.71875 C 48.132812 37.890625 48.308594 38 48.5 38 C 49.722656 38 50.78125 37.75 51.699219 37.351562 C 51.726562 37.339844 51.75 37.328125 51.773438 37.3125 L 53.773438 36.007812 C 53.796875 35.992188 53.816406 35.976562 53.839844 35.957031 C 54.960938 34.925781 55.667969 33.746094 56.164062 32.699219 C 56.324219 33.378906 56.644531 34.058594 57.316406 35.03125 C 57.503906 35.3125 57.699219 35.566406 57.890625 35.808594 C 58 35.949219 58.175781 36.019531 58.351562 35.996094 C 58.53125 35.96875 58.679688 35.851562 58.746094 35.6875 C 58.8125 35.519531 58.785156 35.332031 58.675781 35.191406 C 58.496094 34.960938 58.3125 34.71875 58.140625 34.464844 C 56.882812 32.648438 57 32.394531 57 30.5 C 57 30.253906 56.820312 30.046875 56.578125 30.007812 C 56.335938 29.96875 56.101562 30.109375 56.027344 30.34375 C 55.757812 31.15625 54.984375 33.535156 53.175781 35.203125 L 51.28125 36.4375 C 50.738281 36.671875 50.050781 36.734375 49.382812 36.820312 C 50.667969 34.6875 51 32.621094 51 31.5 C 51 31.332031 50.917969 31.175781 50.777344 31.082031 C 50.636719 30.992188 50.460938 30.972656 50.308594 31.039062 C 45.539062 33.050781 42 37.996094 41.472656 38.746094 C 41.457031 38.722656 41.449219 38.726562 41.433594 38.695312 C 41.234375 38.355469 41 37.695312 41 36.5 C 41 36.277344 40.855469 36.085938 40.644531 36.023438 C 40.429688 35.957031 40.203125 36.042969 40.082031 36.226562 C 38.183594 39.128906 38.035156 41.257812 38.046875 42.429688 C 37.699219 42.109375 37.289062 41.695312 36.867188 41.09375 C 35.929688 39.765625 35 37.714844 35 34.660156 C 35 27.351562 40.957031 20 50.59375 20 Z M 59.753906 36.992188 C 59.574219 37.003906 59.417969 37.105469 59.335938 37.261719 C 59.253906 37.417969 59.261719 37.605469 59.355469 37.753906 C 59.742188 38.40625 60.042969 39.058594 60.269531 39.671875 C 60.324219 39.847656 60.472656 39.980469 60.652344 40.015625 C 60.835938 40.050781 61.023438 39.984375 61.136719 39.839844 C 61.253906 39.695312 61.28125 39.5 61.207031 39.328125 C 60.960938 38.65625 60.632812 37.949219 60.210938 37.242188 C 60.117188 37.082031 59.941406 36.984375 59.753906 36.992188 Z M 17.480469 37 C 21.957031 37 23.851562 39.101562 24.347656 40.316406 C 24.417969 40.492188 24.582031 40.609375 24.773438 40.621094 C 25.921875 40.703125 26.953125 41.480469 27.730469 42.867188 C 28.511719 44.257812 29 46.226562 29 48.5 C 29 52.054688 27.648438 53.617188 26.875 54.355469 C 26.765625 53.351562 26.480469 51.921875 25.367188 50.226562 C 24.972656 49.625 24.386719 49.039062 23.867188 48.300781 L 23.863281 48.300781 C 22.910156 46.933594 23 46.007812 23 44.5 C 23 44.253906 22.824219 44.046875 22.578125 44.003906 C 22.335938 43.964844 22.101562 44.109375 22.023438 44.34375 C 21.871094 44.808594 21.300781 46.269531 20.234375 47.570312 C 19.359375 48.636719 18.074219 49.433594 16.484375 49.742188 C 17.484375 48.097656 18 46.457031 18 45.5 C 18 45.332031 17.917969 45.175781 17.777344 45.082031 C 17.640625 44.992188 17.464844 44.972656 17.308594 45.039062 C 15.191406 45.914062 13.410156 47.722656 12.125 49.300781 C 11.121094 50.539062 10.761719 51.199219 10.507812 51.621094 C 10.476562 51.566406 10.480469 51.59375 10.445312 51.527344 C 10.226562 51.085938 10 50.417969 10 49.5 C 10 49.28125 9.855469 49.085938 9.644531 49.023438 C 9.433594 48.957031 9.207031 49.039062 9.082031 49.222656 C 7.554688 51.515625 7.246094 53.382812 7.136719 54.453125 C 6.90625 54.210938 6.652344 53.953125 6.378906 53.546875 C 5.691406 52.507812 5 50.902344 5 48.5 C 5 42.777344 9.75 37 17.476562 37 Z M 83.480469 37 C 87.957031 37 89.851562 39.101562 90.347656 40.316406 C 90.417969 40.492188 90.582031 40.609375 90.773438 40.621094 C 91.921875 40.703125 92.953125 41.480469 93.730469 42.867188 C 94.511719 44.257812 95 46.226562 95 48.5 C 95 52.054688 93.648438 53.617188 92.875 54.355469 C 92.765625 53.351562 92.480469 51.921875 91.367188 50.226562 C 90.972656 49.625 90.386719 49.039062 89.867188 48.300781 L 89.863281 48.300781 C 88.910156 46.933594 89 46.007812 89 44.5 C 89 44.253906 88.824219 44.046875 88.578125 44.003906 C 88.335938 43.964844 88.101562 44.109375 88.023438 44.34375 C 87.871094 44.808594 87.300781 46.269531 86.234375 47.570312 C 85.359375 48.636719 84.074219 49.433594 82.484375 49.742188 C 83.484375 48.097656 84 46.457031 84 45.5 C 84 45.332031 83.917969 45.175781 83.777344 45.082031 C 83.640625 44.992188 83.464844 44.972656 83.308594 45.039062 C 81.191406 45.914062 79.410156 47.722656 78.125 49.300781 C 77.121094 50.539062 76.761719 51.199219 76.507812 51.621094 C 76.476562 51.566406 76.480469 51.59375 76.445312 51.527344 C 76.226562 51.085938 76 50.417969 76 49.5 C 76 49.28125 75.855469 49.085938 75.644531 49.023438 C 75.433594 48.957031 75.207031 49.039062 75.082031 49.222656 C 73.554688 51.515625 73.246094 53.382812 73.136719 54.453125 C 72.90625 54.210938 72.652344 53.953125 72.378906 53.546875 C 71.691406 52.507812 71 50.902344 71 48.5 C 71 48.140625 71.019531 47.785156 71.054688 47.429688 C 71.605469 42.078125 76.234375 37 83.476562 37 Z M 22.101562 46.511719 C 22.210938 47.265625 22.457031 48.035156 23.046875 48.875 C 23.621094 49.695312 24.238281 50.324219 24.535156 50.773438 C 26.058594 53.101562 26 55.484375 26 55.484375 C 25.996094 55.675781 26.097656 55.851562 26.265625 55.941406 C 26.429688 56.03125 26.632812 56.019531 26.789062 55.90625 C 26.789062 55.90625 27.25 55.574219 27.820312 54.882812 C 27.835938 54.902344 27.855469 54.933594 27.871094 54.949219 C 27.917969 55.011719 27.976562 55.125 27.992188 55.320312 C 27.992188 55.355469 27.988281 55.390625 27.984375 55.429688 C 27.96875 55.535156 27.945312 55.6875 27.914062 55.863281 C 27.851562 56.222656 27.765625 56.691406 27.675781 57.167969 C 27.492188 58.117188 27.242188 59.234375 27.21875 59.308594 C 27.214844 59.3125 27.214844 59.3125 27.214844 59.316406 C 27.074219 59.761719 26.808594 60.007812 26.683594 60.050781 C 26.273438 60.1875 26 60.570312 26 61 L 26 61.492188 C 26 62.394531 25.511719 63.460938 25.171875 63.980469 C 25.03125 64.191406 24.882812 64.398438 24.726562 64.601562 C 24.691406 64.640625 24.65625 64.679688 24.625 64.722656 C 24.5 64.875 24.371094 65.023438 24.238281 65.167969 C 23.960938 65.472656 23.660156 65.753906 23.351562 66.027344 C 23.273438 66.089844 23.203125 66.15625 23.128906 66.21875 C 23.03125 66.296875 22.933594 66.363281 22.835938 66.441406 C 22.527344 66.683594 22.210938 66.917969 21.886719 67.128906 C 21.789062 67.191406 21.6875 67.246094 21.585938 67.308594 C 21.277344 67.5 20.960938 67.679688 20.652344 67.839844 C 19.148438 68.605469 17.691406 69 16.972656 69 C 16.289062 69 14.867188 68.613281 13.390625 67.863281 C 13.042969 67.6875 12.695312 67.484375 12.351562 67.273438 C 12.273438 67.222656 12.199219 67.183594 12.121094 67.136719 C 11.796875 66.921875 11.476562 66.6875 11.164062 66.441406 C 11.066406 66.363281 10.964844 66.296875 10.871094 66.21875 C 10.796875 66.15625 10.722656 66.089844 10.648438 66.027344 C 10.339844 65.753906 10.035156 65.46875 9.753906 65.160156 C 9.628906 65.027344 9.511719 64.886719 9.398438 64.746094 C 9.359375 64.695312 9.316406 64.648438 9.273438 64.601562 C 9.117188 64.398438 8.96875 64.191406 8.828125 63.980469 C 8.484375 63.460938 8 62.394531 8 61.492188 L 8 61 C 8 60.570312 7.726562 60.1875 7.316406 60.050781 C 7.191406 60.007812 6.925781 59.761719 6.785156 59.316406 C 6.785156 59.316406 6.785156 59.3125 6.785156 59.3125 C 6.757812 59.234375 6.507812 58.121094 6.324219 57.167969 C 6.234375 56.691406 6.148438 56.226562 6.085938 55.867188 C 6.054688 55.6875 6.03125 55.535156 6.015625 55.429688 C 6.011719 55.390625 6.007812 55.355469 6.007812 55.324219 C 6.023438 55.125 6.085938 55.011719 6.132812 54.949219 C 6.128906 54.949219 6.164062 54.910156 6.167969 54.90625 C 6.339844 55.105469 6.503906 55.277344 6.648438 55.414062 C 6.800781 55.558594 6.929688 55.671875 7.023438 55.75 C 7.070312 55.785156 7.105469 55.816406 7.128906 55.835938 C 7.132812 55.839844 7.109375 55.8125 7.117188 55.820312 C 7.25 55.980469 7.472656 56.039062 7.667969 55.96875 C 7.867188 55.898438 8 55.710938 8 55.5 C 8 55.5 8.25 53.414062 9.355469 51.09375 C 9.441406 51.359375 9.453125 51.773438 9.554688 51.972656 C 9.832031 52.53125 10.148438 52.855469 10.148438 52.855469 C 10.257812 52.964844 10.414062 53.015625 10.566406 52.996094 C 10.722656 52.972656 10.859375 52.882812 10.9375 52.746094 C 10.9375 52.746094 11.675781 51.441406 12.902344 49.929688 C 13.917969 48.679688 15.300781 47.421875 16.78125 46.554688 C 16.574219 47.570312 16.152344 48.882812 15.109375 50.1875 C 14.988281 50.335938 14.964844 50.542969 15.050781 50.714844 C 15.132812 50.890625 15.308594 51 15.5 51 C 18.011719 51 19.824219 49.648438 21.007812 48.203125 C 21.484375 47.621094 21.800781 47.050781 22.101562 46.511719 Z M 88.101562 46.511719 C 88.210938 47.265625 88.457031 48.035156 89.046875 48.875 C 89.621094 49.695312 90.238281 50.324219 90.535156 50.773438 C 92.058594 53.101562 92 55.484375 92 55.484375 C 91.992188 55.730469 92.164062 55.941406 92.398438 55.988281 C 92.417969 55.992188 92.433594 55.996094 92.449219 55.996094 C 92.570312 56.007812 92.691406 55.976562 92.789062 55.910156 C 92.789062 55.910156 92.941406 55.785156 93.15625 55.582031 C 93.34375 55.414062 93.527344 55.238281 93.820312 54.882812 C 93.835938 54.902344 93.855469 54.933594 93.867188 54.949219 C 93.917969 55.011719 93.976562 55.125 93.992188 55.320312 C 93.992188 55.355469 93.988281 55.390625 93.984375 55.429688 C 93.96875 55.535156 93.945312 55.6875 93.914062 55.863281 C 93.851562 56.222656 93.765625 56.691406 93.675781 57.167969 C 93.492188 58.117188 93.242188 59.234375 93.214844 59.308594 C 93.214844 59.3125 93.214844 59.3125 93.214844 59.316406 C 93.074219 59.761719 92.808594 60.007812 92.683594 60.050781 C 92.273438 60.1875 92 60.570312 92 61 L 92 61.492188 C 92 62.394531 91.511719 63.460938 91.171875 63.980469 C 91.03125 64.191406 90.882812 64.398438 90.726562 64.601562 C 90.691406 64.640625 90.65625 64.679688 90.621094 64.722656 C 90.5 64.875 90.371094 65.023438 90.238281 65.167969 C 89.960938 65.472656 89.660156 65.753906 89.347656 66.027344 C 89.273438 66.089844 89.203125 66.15625 89.125 66.21875 C 89.03125 66.296875 88.933594 66.363281 88.835938 66.441406 C 88.527344 66.683594 88.210938 66.917969 87.886719 67.128906 C 87.789062 67.191406 87.6875 67.246094 87.585938 67.308594 C 87.277344 67.5 86.960938 67.679688 86.652344 67.839844 C 85.148438 68.605469 83.691406 69 82.96875 69 C 82.289062 69 80.867188 68.613281 79.386719 67.863281 C 79.042969 67.6875 78.695312 67.484375 78.347656 67.273438 C 78.273438 67.222656 78.199219 67.183594 78.121094 67.136719 C 77.796875 66.921875 77.476562 66.6875 77.160156 66.441406 C 77.066406 66.363281 76.964844 66.296875 76.871094 66.21875 C 76.796875 66.15625 76.722656 66.089844 76.648438 66.027344 C 76.339844 65.753906 76.035156 65.46875 75.75 65.160156 C 75.414062 64.789062 75.101562 64.398438 74.828125 63.980469 C 74.484375 63.460938 74 62.394531 74 61.492188 L 74 61 C 74 60.570312 73.726562 60.1875 73.316406 60.050781 C 73.191406 60.007812 72.925781 59.761719 72.785156 59.316406 C 72.785156 59.316406 72.785156 59.3125 72.785156 59.3125 C 72.757812 59.234375 72.507812 58.121094 72.324219 57.167969 C 72.234375 56.691406 72.148438 56.226562 72.085938 55.867188 C 72.054688 55.6875 72.03125 55.535156 72.015625 55.429688 C 72.011719 55.390625 72.007812 55.355469 72.007812 55.324219 C 72.023438 55.125 72.085938 55.011719 72.132812 54.949219 C 72.128906 54.949219 72.164062 54.910156 72.167969 54.90625 C 72.339844 55.105469 72.503906 55.277344 72.648438 55.414062 C 72.800781 55.558594 72.929688 55.671875 73.023438 55.75 C 73.070312 55.785156 73.105469 55.816406 73.128906 55.835938 C 73.132812 55.839844 73.109375 55.8125 73.117188 55.820312 C 73.214844 55.9375 73.359375 56 73.511719 56 C 73.527344 56 73.542969 55.996094 73.558594 55.996094 C 73.8125 55.964844 74 55.753906 74 55.5 C 74 55.5 74.25 53.414062 75.355469 51.09375 C 75.441406 51.359375 75.453125 51.773438 75.554688 51.972656 C 75.832031 52.53125 76.148438 52.855469 76.148438 52.855469 C 76.257812 52.964844 76.414062 53.015625 76.566406 52.996094 C 76.722656 52.972656 76.859375 52.882812 76.9375 52.746094 C 76.9375 52.746094 77.675781 51.441406 78.902344 49.929688 C 79.917969 48.679688 81.300781 47.421875 82.78125 46.554688 C 82.574219 47.570312 82.152344 48.882812 81.109375 50.1875 C 80.988281 50.335938 80.964844 50.542969 81.050781 50.714844 C 81.132812 50.890625 81.308594 51 81.5 51 C 84.011719 51 85.824219 49.648438 87.007812 48.203125 C 87.484375 47.621094 87.800781 47.050781 88.101562 46.511719 Z M 55 61.320312 L 55 62.25 C 55 63.519531 55.511719 64.464844 56.117188 65.152344 C 55.75 65.453125 55.171875 65.847656 54.304688 66.207031 C 54.136719 66.273438 54.015625 66.425781 53.992188 66.609375 C 53.96875 66.789062 54.042969 66.96875 54.1875 67.078125 C 54.335938 67.183594 54.527344 67.207031 54.691406 67.132812 C 55.714844 66.703125 56.40625 66.207031 56.839844 65.832031 C 57.527344 66.371094 58.148438 66.621094 58.148438 66.621094 L 58.0625 66.585938 C 58.0625 66.585938 59.007812 67.039062 59.328125 67.195312 C 58.863281 68.050781 57.382812 70.445312 54.589844 71.851562 L 53.535156 70.679688 C 53.53125 70.675781 53.53125 70.675781 53.527344 70.671875 L 53.519531 70.664062 L 51.074219 67.949219 C 51.617188 67.910156 52.132812 67.851562 52.59375 67.761719 C 52.867188 67.707031 53.042969 67.445312 52.992188 67.175781 C 52.9375 66.902344 52.675781 66.726562 52.402344 66.777344 C 51.738281 66.910156 50.980469 66.984375 50.128906 66.992188 C 50.097656 66.984375 50.0625 66.980469 50.027344 66.980469 C 49.96875 66.976562 49.910156 66.980469 49.851562 66.996094 C 47.519531 66.972656 45.902344 66.386719 44.867188 65.8125 C 44.429688 65.570312 44.121094 65.34375 43.886719 65.148438 C 44.492188 64.460938 45.003906 63.519531 45.003906 62.25 L 45.003906 61.320312 C 45.175781 61.410156 45.285156 61.480469 45.464844 61.570312 C 46.867188 62.273438 48.570312 63 50 63 C 51.433594 63 53.132812 62.273438 54.535156 61.570312 C 54.71875 61.480469 54.828125 61.410156 55 61.316406 Z M 43.15625 65.835938 C 43.449219 66.085938 43.84375 66.386719 44.382812 66.6875 C 45.402344 67.253906 46.898438 67.804688 48.917969 67.957031 L 46.480469 70.660156 C 46.476562 70.667969 46.46875 70.671875 46.464844 70.679688 L 45.410156 71.851562 C 42.617188 70.445312 41.140625 68.050781 40.671875 67.195312 C 40.996094 67.039062 41.941406 66.585938 41.941406 66.585938 L 41.855469 66.625 C 41.855469 66.625 42.472656 66.371094 43.15625 65.835938 Z M 60.296875 67.65625 C 61.773438 68.367188 63.199219 69.0625 64.203125 69.53125 C 65.3125 70.050781 66.539062 70.832031 67.457031 71.890625 C 68.375 72.945312 69 74.246094 69 76 L 69 79 L 56.210938 79 Z M 39.703125 67.660156 L 43.789062 79 L 31 79 L 31 76 C 31 74.246094 31.628906 72.945312 32.542969 71.890625 C 33.460938 70.832031 34.691406 70.050781 35.800781 69.535156 C 35.800781 69.53125 35.800781 69.53125 35.800781 69.53125 C 36.800781 69.0625 38.226562 68.371094 39.703125 67.660156 Z M 50 68.246094 L 52.480469 71.003906 C 52.203125 71.355469 51.414062 72.21875 50 72.90625 C 48.585938 72.222656 47.796875 71.355469 47.519531 71.003906 Z M 20.015625 69.246094 C 20.101562 70.589844 20.859375 71.476562 21.546875 72.015625 C 21.136719 72.28125 20.476562 72.59375 19.410156 72.792969 C 19.167969 72.832031 18.992188 73.035156 18.984375 73.277344 C 18.980469 73.519531 19.148438 73.730469 19.386719 73.777344 C 19.402344 73.78125 19.417969 73.785156 19.433594 73.789062 C 19.46875 73.789062 19.503906 73.789062 19.535156 73.789062 C 19.554688 73.785156 19.574219 73.78125 19.589844 73.777344 C 20.867188 73.535156 21.699219 73.132812 22.222656 72.769531 C 22.320312 72.699219 22.359375 72.648438 22.4375 72.582031 C 22.511719 72.617188 22.648438 72.683594 22.648438 72.683594 C 22.660156 72.691406 22.675781 72.695312 22.691406 72.703125 L 28.234375 74.519531 C 28.53125 74.632812 28.808594 74.777344 29.074219 74.933594 C 29.03125 75.277344 29 75.628906 29 76 L 29 79 L 2.140625 79 C 2.019531 79 1.988281 78.945312 2.003906 78.859375 C 2.007812 78.859375 2.007812 78.855469 2.007812 78.855469 C 2.449219 76.894531 3.851562 75.265625 5.765625 74.519531 L 11.308594 72.703125 C 11.320312 72.699219 11.328125 72.695312 11.335938 72.691406 C 11.335938 72.691406 11.472656 72.625 11.546875 72.59375 C 11.734375 72.75 11.964844 72.914062 12.285156 73.085938 C 13.191406 73.558594 14.664062 74 17 74 C 17.1875 74 17.355469 73.992188 17.515625 73.988281 C 17.792969 73.980469 18.007812 73.75 18 73.472656 C 17.992188 73.195312 17.761719 72.980469 17.484375 72.988281 C 17.316406 72.992188 17.160156 73 17 73 C 14.789062 73 13.488281 72.585938 12.75 72.199219 C 12.632812 72.136719 12.546875 72.078125 12.457031 72.019531 C 13.144531 71.480469 13.898438 70.597656 13.984375 69.253906 C 15.148438 69.738281 16.199219 70 16.96875 70 C 17.761719 70 18.835938 69.738281 20.015625 69.246094 Z M 86.015625 69.246094 C 86.101562 70.589844 86.859375 71.476562 87.546875 72.015625 C 87.136719 72.28125 86.476562 72.59375 85.410156 72.792969 C 85.375 72.800781 85.34375 72.808594 85.308594 72.820312 C 85.277344 72.832031 85.25 72.847656 85.222656 72.863281 C 85.179688 72.890625 85.140625 72.921875 85.109375 72.957031 C 85.109375 72.960938 85.109375 72.960938 85.109375 72.960938 C 85.097656 72.972656 85.085938 72.988281 85.078125 73 C 84.984375 73.132812 84.957031 73.296875 85.011719 73.449219 C 85.0625 73.601562 85.183594 73.71875 85.335938 73.765625 C 85.339844 73.765625 85.339844 73.765625 85.339844 73.765625 C 85.339844 73.769531 85.34375 73.769531 85.34375 73.769531 C 85.359375 73.773438 85.371094 73.777344 85.386719 73.777344 C 85.402344 73.78125 85.417969 73.785156 85.433594 73.789062 C 85.453125 73.789062 85.46875 73.789062 85.484375 73.789062 C 85.503906 73.789062 85.519531 73.789062 85.535156 73.789062 C 85.554688 73.785156 85.574219 73.78125 85.589844 73.777344 C 86.867188 73.535156 87.699219 73.132812 88.222656 72.769531 C 88.320312 72.699219 88.359375 72.648438 88.4375 72.582031 C 88.511719 72.617188 88.648438 72.683594 88.648438 72.683594 C 88.660156 72.691406 88.675781 72.695312 88.6875 72.703125 L 94.226562 74.515625 C 96.144531 75.261719 97.550781 76.890625 97.992188 78.855469 C 97.992188 78.855469 97.992188 78.859375 97.992188 78.859375 C 98.011719 78.945312 97.980469 79 97.859375 79 L 71 79 L 71 76 C 71 75.628906 70.96875 75.277344 70.925781 74.929688 C 71.195312 74.777344 71.472656 74.632812 71.761719 74.519531 L 77.308594 72.699219 C 77.320312 72.699219 77.328125 72.695312 77.335938 72.691406 C 77.335938 72.691406 77.472656 72.625 77.546875 72.589844 C 77.550781 72.59375 77.554688 72.597656 77.558594 72.601562 C 77.636719 72.664062 77.710938 72.722656 77.804688 72.789062 C 77.941406 72.886719 78.09375 72.984375 78.285156 73.082031 C 79.191406 73.558594 80.664062 74 83 74 C 83.1875 74 83.355469 73.992188 83.515625 73.988281 C 83.792969 73.980469 84.007812 73.75 84 73.472656 C 83.992188 73.195312 83.761719 72.980469 83.484375 72.988281 C 83.316406 72.992188 83.160156 73 83 73 C 80.789062 73 79.488281 72.585938 78.75 72.199219 C 78.632812 72.136719 78.546875 72.078125 78.457031 72.019531 C 79.144531 71.480469 79.894531 70.59375 79.980469 69.253906 C 80.347656 69.40625 80.699219 69.539062 81.035156 69.648438 C 81.777344 69.878906 82.441406 70 82.96875 70 C 83.761719 70 84.835938 69.738281 86.015625 69.246094 Z M 41.746094 70.371094 C 42.632812 71.316406 43.800781 72.277344 45.292969 72.953125 C 45.492188 73.046875 45.726562 72.996094 45.871094 72.832031 L 46.835938 71.761719 C 47.152344 72.125 47.636719 72.625 48.347656 73.132812 C 47.097656 75.367188 46.980469 77.9375 46.988281 79 L 44.851562 79 Z M 58.253906 70.371094 L 55.148438 79 L 53.011719 79 C 53.019531 77.9375 52.902344 75.367188 51.652344 73.132812 C 52.363281 72.625 52.847656 72.121094 53.164062 71.761719 L 54.128906 72.832031 C 54.273438 72.996094 54.507812 73.046875 54.707031 72.953125 C 56.199219 72.277344 57.367188 71.316406 58.253906 70.371094 Z M 49.207031 73.660156 C 49.398438 73.765625 49.589844 73.867188 49.800781 73.957031 C 49.929688 74.015625 50.070312 74.015625 50.199219 73.957031 C 50.410156 73.867188 50.601562 73.765625 50.792969 73.660156 C 52.007812 75.859375 51.996094 78.378906 51.980469 79 L 48.019531 79 C 48.003906 78.378906 47.992188 75.859375 49.207031 73.660156 Z M 49.207031 73.660156 "/>
</g>
</svg>
