<?xml version="1.0"?>
<svg xmlns="http://www.w3.org/2000/svg" viewBox="0 0 64 64" width="512px" height="512px" class=""><g><g id="outline"><path d="M35,42a1,1,0,0,0,1-1V39H47a1,1,0,0,0,1-1V34a1,1,0,0,0-1-1H33V14.816A2.966,2.966,0,0,0,34,15h8a2.981,2.981,0,0,0,2-.78A2.981,2.981,0,0,0,46,15h7a3,3,0,0,0,3-3V10a.937.937,0,0,0-.019-.092.993.993,0,0,0-.043-.217,1.062,1.062,0,0,0-.059-.144,1.011,1.011,0,0,0-.117-.173.955.955,0,0,0-.105-.115.986.986,0,0,0-.173-.116.921.921,0,0,0-.143-.074c-.018-.007-.031-.02-.05-.026l-23-7-.016,0-.016-.007a.964.964,0,0,0-.13-.017.771.771,0,0,0-.084-.011C32.03,2.005,32.015,2,32,2s-.03,0-.046.006a.786.786,0,0,0-.083.011.944.944,0,0,0-.13.017l-.016.007-.016,0-23,7c-.019.006-.032.019-.05.026a.921.921,0,0,0-.143.074.986.986,0,0,0-.173.116.955.955,0,0,0-.105.115,1.011,1.011,0,0,0-.117.173,1.062,1.062,0,0,0-.059.144.993.993,0,0,0-.043.217A.937.937,0,0,0,8,10v2a3,3,0,0,0,3,3h7a2.981,2.981,0,0,0,2-.78A2.981,2.981,0,0,0,22,15h8a2.966,2.966,0,0,0,1-.184V33H17a1,1,0,0,0-1,1v4a1,1,0,0,0,1,1H28v2a1,1,0,0,0,1,1h2V58H26a1,1,0,0,0-1,1v3h2V60h4v2h2V60h4v2h2V59a1,1,0,0,0-1-1H33V42ZM33,4.742,40.3,9H33Zm-2,0V9H23.7ZM42,13H34a1,1,0,0,1-1-1V11H43v1A1,1,0,0,1,42,13Zm12-1a1,1,0,0,1-1,1H46a1,1,0,0,1-1-1V11h9ZM44.271,9,39.9,6.449,48.28,9ZM24.1,6.449,19.729,9H15.72ZM18,13H11a1,1,0,0,1-1-1V11h9v1A1,1,0,0,1,18,13Zm12,0H22a1,1,0,0,1-1-1V11H31v1A1,1,0,0,1,30,13ZM18,35H46v2H18Zm12,4h4v1H30Z" data-original="#000000" class="active-path" data-old_color="#000000" fill="#999999"/><path d="M24,45a3,3,0,0,0-3-3H10V28a3,3,0,0,0-6,0V44a3.993,3.993,0,0,0,2.82,3.8l-2.8,14,1.96.392L7.82,53H20.18l1.84,9.2,1.96-.392L21.215,47.978A2.993,2.993,0,0,0,24,45ZM8.22,51l.6-3H19.18l.6,3ZM21,46H8a2,2,0,0,1-2-2V28a1,1,0,0,1,2,0V43a1,1,0,0,0,1,1H21a1,1,0,0,1,0,2Z" data-original="#000000" class="active-path" data-old_color="#000000" fill="#999999"/><path d="M60,44V28a3,3,0,0,0-6,0V42H43a2.993,2.993,0,0,0-.215,5.978L40.02,61.8l1.96.392L43.82,53H56.18l1.84,9.2,1.96-.392-2.8-14A3.993,3.993,0,0,0,60,44ZM44.22,51l.6-3H55.18l.6,3ZM58,44a2,2,0,0,1-2,2H43a1,1,0,0,1,0-2H55a1,1,0,0,0,1-1V28a1,1,0,0,1,2,0Z" data-original="#000000" class="active-path" data-old_color="#000000" fill="#999999"/></g></g> </svg>
