<?xml version="1.0"?>
<svg xmlns="http://www.w3.org/2000/svg" height="512px" viewBox="0 0 512 512.00006" width="512px" class=""><g><path d="m445.707031 14.71875c-1.203125-8.417969-8.398437-14.6875-16.902343-14.71875h-335.984376c-4.148437 0-7.695312 2.984375-8.40625 7.074219l-84.164062 484.890625c-.859375 4.972656.519531 10.074218 3.769531 13.9375 3.253907 3.867187 8.042969 6.097656 13.09375 6.097656h76.980469c8.515625-.03125 15.714844-6.3125 16.902344-14.746094l7.363281-53.519531h27.09375l7.40625 53.527344c1.191406 8.445312 8.414063 14.726562 16.941406 14.738281h85.460938c4.9375.007812 9.636719-2.121094 12.886719-5.839844 3.246093-3.71875 4.726562-8.664062 4.050781-13.554687l-6.757813-48.871094h129.117188l7.382812 53.519531c1.191406 8.433594 8.394532 14.714844 16.910156 14.746094h76.066407c4.9375 0 9.628906-2.136719 12.867187-5.855469 3.242188-3.722656 4.714844-8.660156 4.039063-13.550781zm-327.347656 411.949219c-8.515625.027343-15.71875 6.308593-16.902344 14.746093l-7.363281 53.519532-77.039062-.058594 75.390624-434.289062 50.644532 366.082031zm300.492187 68.265625-7.378906-53.53125c-1.203125-8.425782-8.402344-14.699219-16.914062-14.734375h-129.117188c-4.941406-.007813-9.640625 2.128906-12.886718 5.855469-3.246094 3.722656-4.71875 8.671874-4.035157 13.566406l6.742188 48.84375h-85.460938l-66.152343-477.867188h325.121093l66.148438 477.867188zm0 0" data-original="#000000" class="active-path" data-old_color="#000000" fill="#999999"/><path d="m399.464844 288.308594c4.90625-5.398438 7.085937-12.734375 5.921875-19.933594-3.632813-20.601562-32.988281-31.574219-52.734375-36.753906 1.082031-7.382813.96875-14.890625-.332032-22.238282l-2.722656-15.429687c3.679688 1.480469 7.605469 2.265625 11.570313 2.3125 4.414062.015625 8.769531-1.015625 12.707031-3.011719 10.238281-5.433594 15.648438-16.984375 13.269531-28.332031-3.097656-16.164063-17.046875-27.984375-33.503906-28.386719h-132.265625c-4.644531-.046875-9.070312 1.96875-12.082031 5.503906-2.996094 3.636719-4.222657 8.414063-3.347657 13.046876l10.53125 59.730468c1.136719 6.230469 3.042969 12.292969 5.683594 18.050782-27.210937 8.59375-41.222656 22.363281-38.398437 38.46875 5.117187 28.839843 64.28125 44.371093 117.390625 44.371093 45.746094.027344 84.335937-10.742187 98.3125-27.398437zm-29.132813-120.421875c1.082031 3.984375-.675781 8.199219-4.265625 10.238281-1.515625.75-3.191406 1.128906-4.882812 1.109375-3.433594-.082031-6.753906-1.242187-9.496094-3.3125l-.554688-.375c-3.402343-2.628906-5.757812-6.386719-6.640624-10.597656l-2.011719-11.347657h11.160156c8.167969.40625 15.027344 6.277344 16.691406 14.285157zm-45.226562-14.285157 2.5625 14.273438 7.832031 44.441406c2.738281 13.292969-.433594 27.117188-8.6875 37.890625-7.445312 8.984375-18.476562 14.226563-30.148438 14.328125-30.816406-.640625-57.105468-22.488281-63.375-52.667968l-10.277343-58.265626zm-124.585938 114.773438c-.988281-5.574219 8.285157-14.175781 30.488281-20.414062 14.988282 20.578124 38.695313 33.011718 64.144532 33.640624h2.007812c16.636719-.203124 32.332032-7.738281 42.898438-20.59375 3.167968-3.933593 5.800781-8.273437 7.832031-12.902343 26.195313 6.757812 39.527344 16.648437 40.6875 23.253906.265625 2.226563-.542969 4.445313-2.183594 5.972656-8.628906 10.242188-38.964843 21.335938-85.179687 21.335938-59.050782 0-98.390625-17.648438-100.628906-30.292969zm0 0" data-original="#000000" class="active-path" data-old_color="#000000" fill="#999999"/><path d="m224.097656 96.308594c2.558594 1.882812 3.351563 4.207031 2.859375 5.433594l-2.433593 5.972656c-1.757813 4.359375.335937 9.316406 4.683593 11.09375 1.023438.421875 2.117188.636718 3.21875.632812 3.472657.003906 6.601563-2.101562 7.910157-5.316406l2.421874-5.972656c3.410157-9.453125-.089843-20.007813-8.464843-25.558594-2.386719-1.773438-3.589844-4.265625-2.738281-5.707031l7.679687-12.800781c2.324219-4.03125.992187-9.179688-2.996094-11.578126-3.988281-2.394531-9.160156-1.15625-11.628906 2.789063l-7.679687 12.800781c-5.355469 9.828125-2.230469 22.125 7.167968 28.210938zm0 0" data-original="#000000" class="active-path" data-old_color="#000000" fill="#999999"/><path d="m258.230469 96.308594c2.558593 1.882812 3.355469 4.207031 2.859375 5.433594l-2.433594 5.972656c-1.757812 4.359375.335938 9.316406 4.6875 11.09375 1.019531.421875 2.113281.636718 3.214844.632812 3.472656.003906 6.601562-2.101562 7.910156-5.316406l2.425781-5.972656c3.40625-9.453125-.089843-20.007813-8.464843-25.558594-2.390626-1.773438-3.59375-4.265625-2.742188-5.707031l7.679688-12.800781c2.324218-4.03125.992187-9.179688-2.996094-11.578126-3.988282-2.394531-9.160156-1.15625-11.628906 2.789063l-7.679688 12.800781c-5.351562 9.828125-2.230469 22.125 7.167969 28.210938zm0 0" data-original="#000000" class="active-path" data-old_color="#000000" fill="#999999"/><path d="m292.363281 96.308594c2.5625 1.882812 3.355469 4.207031 2.859375 5.433594l-2.433594 5.972656c-1.757812 4.359375.335938 9.316406 4.6875 11.09375 1.019532.421875 2.113282.636718 3.214844.632812 3.472656.003906 6.601563-2.101562 7.910156-5.316406l2.425782-5.972656c3.40625-9.453125-.089844-20.007813-8.464844-25.558594-2.390625-1.773438-3.59375-4.265625-2.742188-5.707031l7.683594-12.800781c2.320313-4.03125.988282-9.179688-3-11.578126-3.988281-2.394531-9.160156-1.15625-11.628906 2.789063l-7.679688 12.800781c-5.351562 9.828125-2.230468 22.125 7.167969 28.210938zm0 0" data-original="#000000" class="active-path" data-old_color="#000000" fill="#999999"/><path d="m418.121094 332.800781h-204.800782c-4.714843 0-8.535156 3.820313-8.535156 8.53125 0 4.714844 3.820313 8.535157 8.535156 8.535157h204.800782c4.710937 0 8.53125-3.820313 8.53125-8.535157 0-4.710937-3.820313-8.53125-8.53125-8.53125zm0 0" data-original="#000000" class="active-path" data-old_color="#000000" fill="#999999"/><path d="m372.9375 366.933594h-102.402344c-4.710937 0-8.53125 3.820312-8.53125 8.53125 0 4.714844 3.820313 8.535156 8.53125 8.535156h102.402344c4.710938 0 8.53125-3.820312 8.53125-8.535156 0-4.710938-3.820312-8.53125-8.53125-8.53125zm0 0" data-original="#000000" class="active-path" data-old_color="#000000" fill="#999999"/></g> </svg>
